<svg width="32" height="32" viewBox="0 0 32 32" fill="none" xmlns="http://www.w3.org/2000/svg">
<path d="M0 16C0 7.16344 7.16344 0 16 0C24.8366 0 32 7.16344 32 16C32 24.8366 24.8366 32 16 32C7.16344 32 0 24.8366 0 16Z" fill="#303030"/>
<path d="M18.545 18.3498C18.545 18.6878 18.7766 18.9047 19.1572 18.9047C19.5653 18.9047 19.8047 18.6715 19.8047 18.3389C19.8047 17.9955 19.5732 17.784 19.1886 17.784C18.7844 17.784 18.545 18.0126 18.545 18.3498ZM18.7648 18.354C18.7648 18.0926 18.9257 17.9375 19.1886 17.9375C19.4358 17.9375 19.5771 18.0822 19.5771 18.337C19.5771 18.5918 19.4241 18.7504 19.1572 18.7504C18.9139 18.7504 18.7648 18.6015 18.7648 18.354ZM28.7366 14.1989C28.6738 13.9819 28.6306 13.8663 28.6306 13.8303C28.6306 13.8106 28.6385 13.787 28.6581 13.7638H26.8529C26.9549 13.8064 26.9981 13.8996 26.9981 14.0531V15.1656C26.9981 15.3203 26.9549 15.4135 26.8529 15.4561H28.6816C28.662 15.429 28.6502 15.405 28.6502 15.383C28.6502 15.3412 28.7169 15.2066 28.8151 14.9653C28.6581 15.0956 28.4305 15.1656 28.144 15.1656H27.4219V14.7387H28.0851C28.1636 14.7387 28.2264 14.7051 28.2617 14.6428L28.4069 14.4038C28.352 14.4255 28.2774 14.4467 28.1754 14.4467H27.4219V14.0531H28.1048C28.3402 14.0531 28.5404 14.0821 28.7366 14.1989ZM25.6402 13.7638H24.977C25.0791 13.8052 25.1301 13.9019 25.1301 14.0589L25.1379 15.1475L24.4629 13.8702C24.4512 13.84 24.4394 13.8176 24.4394 13.8052C24.4394 13.7963 24.4472 13.7839 24.459 13.7638H23.6192C23.7212 13.8064 23.7605 13.9019 23.7605 14.0589V15.1614C23.7605 15.3192 23.7212 15.4127 23.6192 15.4561H24.2942C24.1843 15.405 24.1529 15.3192 24.149 15.1614L24.1215 14.0318L24.8515 15.3489C24.8632 15.3791 24.8711 15.3953 24.8711 15.405C24.8711 15.417 24.8671 15.4352 24.8515 15.4561H25.5421C25.5068 15.417 25.5029 15.3721 25.5029 15.3137V14.0531C25.5029 13.9243 25.5068 13.8292 25.6402 13.7638ZM22.4183 14.6115C22.4183 14.0531 22.0534 13.7244 21.4059 13.7244C20.778 13.7244 20.3973 14.0918 20.3973 14.6328C20.3973 15.1614 20.7583 15.499 21.4059 15.499C22.0338 15.499 22.4183 15.1223 22.4183 14.6115ZM21.971 14.5879C21.971 14.9669 21.7551 15.1861 21.3823 15.1861C21.0409 15.1861 20.8447 14.9866 20.8447 14.6393C20.8447 14.2526 21.0527 14.0337 21.4294 14.0337C21.7747 14.0337 21.971 14.2317 21.971 14.5879ZM19.2004 15.383C19.2004 15.3412 19.271 15.2066 19.3652 14.9653C19.1768 15.1138 18.9649 15.1656 18.6902 15.1656H18.1997V14.0531C18.1997 13.9046 18.2546 13.8052 18.3527 13.7638H17.6345C17.7366 13.8064 17.7797 13.8996 17.7797 14.0531V15.1656C17.7797 15.3192 17.7366 15.4127 17.6345 15.4561H19.2357C19.2122 15.429 19.2004 15.405 19.2004 15.383ZM17.6306 18.3293C17.6306 18.1556 17.5561 18.006 17.4265 17.9143C17.3127 17.8324 17.1636 17.8095 16.9674 17.8095H16.3984C16.4611 17.8459 16.4808 17.9043 16.4808 18.0013V18.6839C16.4808 18.7821 16.4611 18.8417 16.3984 18.8768H16.9713C17.3912 18.8768 17.6306 18.6754 17.6306 18.3293ZM17.403 18.337C17.403 18.6158 17.2539 18.726 16.9321 18.726H16.6927V17.9627H16.9125C17.2421 17.9627 17.403 18.0501 17.403 18.337ZM16.0255 15.4561H16.677C16.5946 15.3748 16.5318 15.2728 16.4768 15.1529L15.9078 13.9019C15.8882 13.8663 15.8804 13.84 15.8804 13.8261C15.8804 13.8106 15.8921 13.7901 15.9078 13.7638H15.1897C15.2054 13.7944 15.2132 13.8106 15.2132 13.8226C15.2132 13.84 15.2015 13.8702 15.1858 13.9019L14.5735 15.1529C14.5186 15.2716 14.4597 15.3721 14.3734 15.4561H15.0327C14.9934 15.4193 14.9699 15.3687 14.9699 15.3006C14.9699 15.2573 14.9778 15.2144 14.9895 15.1896L15.0288 15.1072H16.0177L16.0687 15.2171C16.0766 15.2372 16.0884 15.2778 16.0884 15.3203C16.0884 15.3721 16.0687 15.4127 16.0255 15.4561ZM15.8882 14.7998H15.17L15.5154 14.0082L15.8882 14.7998ZM14.2714 18.0013V18.6839C14.2714 18.7821 14.2518 18.8417 14.185 18.8768H14.5539C14.4872 18.8386 14.4715 18.7809 14.4676 18.6839L14.4558 17.9592L15.0209 18.8134C15.0327 18.8301 15.0366 18.8405 15.0366 18.8447C15.0366 18.8521 15.0327 18.8645 15.0288 18.8768H15.378C15.3584 18.8436 15.3545 18.8154 15.3545 18.7786V17.9955C15.3545 17.9143 15.3545 17.8552 15.433 17.8095H15.0759C15.1387 17.8409 15.1622 17.9024 15.1622 18.0013L15.1661 18.7013L14.6285 17.8656C14.6206 17.8536 14.6128 17.8436 14.6128 17.8374C14.6128 17.8293 14.6206 17.8204 14.6206 17.8095H14.185C14.2518 17.8459 14.2714 17.9043 14.2714 18.0013ZM13.4316 13.0952H12.4662C12.4819 13.1254 12.4897 13.1544 12.4897 13.1776C12.4897 13.1954 12.4818 13.2228 12.474 13.2538L11.7284 15.0276L10.9985 13.2569C10.9828 13.2201 10.9749 13.1903 10.9749 13.171C10.9749 13.147 10.9828 13.1227 10.9985 13.0952H10.0605C10.2018 13.171 10.2489 13.3009 10.2489 13.521V15.0334C10.2489 15.2453 10.2018 15.3791 10.0605 15.4561H10.814C10.6727 15.3791 10.6217 15.2453 10.6217 15.0334V13.4042L11.4301 15.3033C11.4458 15.342 11.4576 15.371 11.4576 15.3953C11.4576 15.4023 11.4498 15.4255 11.438 15.4561H11.9953C11.9835 15.4255 11.9717 15.4023 11.9717 15.3861C11.9717 15.3625 11.9874 15.3385 11.9953 15.3049L12.8233 13.4456V15.0334C12.8233 15.2221 12.7997 15.342 12.6506 15.4561H13.4158C13.2706 15.3451 13.2432 15.2271 13.2432 15.0334V13.521C13.2432 13.3009 13.2903 13.171 13.4316 13.0952ZM8.06694 14.6115C8.06694 14.0531 7.69806 13.7244 7.05447 13.7244C6.42657 13.7244 6.0459 14.0918 6.0459 14.6328C6.0459 15.1614 6.41087 15.499 7.05447 15.499C7.68236 15.499 8.06694 15.1223 8.06694 14.6115ZM7.61564 14.5879C7.61564 14.9669 7.40375 15.1861 7.03093 15.1861C6.68951 15.1861 6.49329 14.9866 6.49329 14.6393C6.49329 14.2526 6.70126 14.0337 7.078 14.0337C7.41549 14.0337 7.61564 14.2317 7.61564 14.5879ZM5.108 13.0952H4.3035C4.44478 13.171 4.49186 13.3013 4.49186 13.521V14.4467C4.49186 14.9251 4.35452 15.1564 3.95031 15.1676C3.71877 15.1738 3.44799 15.0956 3.18506 14.9212V15.4808C3.24392 15.453 3.29101 15.4379 3.33418 15.4379C3.46761 15.4379 3.64813 15.5075 3.95031 15.5133C4.65277 15.5264 4.91569 15.1753 4.91569 14.4541V13.521C4.91569 13.306 4.9628 13.1753 5.108 13.0952ZM10.1743 18.0555V18.6309C10.1743 18.7593 10.1469 18.832 10.0645 18.8768H11.0573C11.0455 18.8447 11.0456 18.8188 11.0456 18.8057C11.0456 18.7608 11.0926 18.6905 11.1397 18.5783C11.0063 18.6731 10.8258 18.7183 10.5825 18.7183H10.3902V18.0555C10.3902 17.9306 10.4255 17.8513 10.504 17.8095H10.0645C10.1429 17.8513 10.1743 17.9302 10.1743 18.0555ZM20.829 18.0013C20.829 17.9043 20.8093 17.8459 20.7426 17.8095H21.1783C21.1743 17.8204 21.1665 17.8293 21.1665 17.8374C21.1665 17.8436 21.1743 17.8536 21.1822 17.8656L21.7159 18.7013L21.712 18.0013C21.712 17.9024 21.6884 17.8409 21.6296 17.8095H21.9867C21.9082 17.8552 21.9043 17.9143 21.9043 17.9955V18.7786C21.9043 18.8154 21.9121 18.8436 21.9317 18.8768H21.5785C21.5864 18.8645 21.5903 18.8521 21.5903 18.8447C21.5903 18.8405 21.5864 18.8301 21.5746 18.8134L21.0095 17.9592L21.0252 18.6839C21.0252 18.7809 21.0409 18.8386 21.1115 18.8768H20.7426C20.8093 18.8417 20.829 18.7821 20.829 18.6839V18.0013ZM12.0306 18.3498C12.0306 18.6878 12.2621 18.9047 12.6428 18.9047C13.047 18.9047 13.2863 18.6715 13.2863 18.3389C13.2863 17.9955 13.0548 17.784 12.6702 17.784C12.266 17.784 12.0306 18.0126 12.0306 18.3498ZM12.2464 18.354C12.2464 18.0926 12.4073 17.9375 12.6742 17.9375C12.9175 17.9375 13.0626 18.0822 13.0626 18.337C13.0626 18.5918 12.9057 18.7504 12.6428 18.7504C12.3955 18.7504 12.2464 18.6015 12.2464 18.354Z" fill="white"/>
</svg>
